<svg xmlns="http://www.w3.org/2000/svg" xmlns:xlink="http://www.w3.org/1999/xlink" width="2000" zoomAndPan="magnify" viewBox="0 0 1500 1499.999933" height="2000" preserveAspectRatio="xMidYMid meet" version="1.0"><defs><clipPath id="f739decd08"><path d="M 73 73 L 1427 73 L 1427 1427 L 73 1427 Z M 73 73 " clip-rule="nonzero"/></clipPath><clipPath id="238b643656"><path d="M 773.71875 90.746094 L 908.882812 496.246094 C 923.8125 541.039062 958.960938 576.1875 1003.753906 591.117188 L 1409.253906 726.28125 C 1419.460938 729.6875 1426.347656 739.238281 1426.347656 750 C 1426.347656 760.761719 1419.460938 770.3125 1409.253906 773.71875 L 1003.753906 908.882812 C 958.960938 923.8125 923.8125 958.960938 908.882812 1003.753906 L 773.71875 1409.253906 C 770.3125 1419.460938 760.761719 1426.347656 750 1426.347656 C 739.238281 1426.347656 729.6875 1419.460938 726.28125 1409.253906 L 591.117188 1003.753906 C 576.1875 958.960938 541.039062 923.8125 496.246094 908.882812 L 90.746094 773.71875 C 80.539062 770.3125 73.652344 760.761719 73.652344 750 C 73.652344 739.238281 80.539062 729.6875 90.746094 726.28125 L 496.246094 591.117188 C 541.039062 576.1875 576.1875 541.039062 591.117188 496.246094 L 726.28125 90.746094 C 729.6875 80.539062 739.238281 73.652344 750 73.652344 C 760.761719 73.652344 770.3125 80.539062 773.71875 90.746094 Z M 773.71875 90.746094 " clip-rule="nonzero"/></clipPath><clipPath id="f90a7cf0c0"><path d="M 0.441406 0.441406 L 1353.558594 0.441406 L 1353.558594 1353.558594 L 0.441406 1353.558594 Z M 0.441406 0.441406 " clip-rule="nonzero"/></clipPath><clipPath id="d5b3bcbb30"><path d="M 700.71875 17.746094 L 835.882812 423.246094 C 850.8125 468.039062 885.960938 503.1875 930.753906 518.117188 L 1336.253906 653.28125 C 1346.460938 656.6875 1353.347656 666.238281 1353.347656 677 C 1353.347656 687.761719 1346.460938 697.3125 1336.253906 700.71875 L 930.753906 835.882812 C 885.960938 850.8125 850.8125 885.960938 835.882812 930.753906 L 700.71875 1336.253906 C 697.3125 1346.460938 687.761719 1353.347656 677 1353.347656 C 666.238281 1353.347656 656.6875 1346.460938 653.28125 1336.253906 L 518.117188 930.753906 C 503.1875 885.960938 468.039062 850.8125 423.246094 835.882812 L 17.746094 700.71875 C 7.539062 697.3125 0.652344 687.761719 0.652344 677 C 0.652344 666.238281 7.539062 656.6875 17.746094 653.28125 L 423.246094 518.117188 C 468.039062 503.1875 503.1875 468.039062 518.117188 423.246094 L 653.28125 17.746094 C 656.6875 7.539062 666.238281 0.652344 677 0.652344 C 687.761719 0.652344 697.3125 7.539062 700.71875 17.746094 Z M 700.71875 17.746094 " clip-rule="nonzero"/></clipPath><clipPath id="3b6501d0aa"><rect x="0" width="1354" y="0" height="1354"/></clipPath><clipPath id="c8b5d7d368"><path d="M 274.332031 274.332031 L 1225.332031 274.332031 L 1225.332031 1225.332031 L 274.332031 1225.332031 Z M 274.332031 274.332031 " clip-rule="nonzero"/></clipPath><clipPath id="b05b2521d0"><path d="M 344.828125 274.332031 L 1155.160156 274.332031 C 1173.855469 274.332031 1191.789062 281.757812 1205.011719 294.980469 C 1218.230469 308.199219 1225.660156 326.132812 1225.660156 344.828125 L 1225.660156 1155.160156 C 1225.660156 1173.855469 1218.230469 1191.789062 1205.011719 1205.011719 C 1191.789062 1218.230469 1173.855469 1225.660156 1155.160156 1225.660156 L 344.828125 1225.660156 C 326.132812 1225.660156 308.199219 1218.230469 294.980469 1205.011719 C 281.757812 1191.789062 274.332031 1173.855469 274.332031 1155.160156 L 274.332031 344.828125 C 274.332031 326.132812 281.757812 308.199219 294.980469 294.980469 C 308.199219 281.757812 326.132812 274.332031 344.828125 274.332031 Z M 344.828125 274.332031 " clip-rule="nonzero"/></clipPath></defs><g clip-path="url(#f739decd08)"><g clip-path="url(#238b643656)"><g transform="matrix(1, 0, 0, 1, 73, 73)"><g clip-path="url(#3b6501d0aa)"><g clip-path="url(#f90a7cf0c0)"><g clip-path="url(#d5b3bcbb30)"><rect x="-403" width="2160" fill="#ffffff" height="2159.999904" y="-402.999985" fill-opacity="1"/></g></g></g></g></g></g><g clip-path="url(#c8b5d7d368)"><g clip-path="url(#b05b2521d0)"><path stroke-linecap="butt" transform="matrix(0.75, 0, 0, 0.75, 274.330558, 274.330504)" fill="none" stroke-linejoin="miter" d="M 93.996764 0.00203584 L 1174.439566 0.00203584 C 1199.366651 0.00203584 1223.278112 9.903078 1240.908322 27.533288 C 1258.533323 45.15829 1268.439574 69.06975 1268.439574 93.996836 L 1268.439574 1174.439637 C 1268.439574 1199.366722 1258.533323 1223.278183 1240.908322 1240.908393 C 1223.278112 1258.533394 1199.366651 1268.439645 1174.439566 1268.439645 L 93.996764 1268.439645 C 69.069679 1268.439645 45.158219 1258.533394 27.533217 1240.908393 C 9.903007 1223.278183 0.00196471 1199.366722 0.00196471 1174.439637 L 0.00196471 93.996836 C 0.00196471 69.06975 9.903007 45.15829 27.533217 27.533288 C 45.158219 9.903078 69.069679 0.00203584 93.996764 0.00203584 Z M 93.996764 0.00203584 " stroke="#ffffff" stroke-width="200" stroke-opacity="1" stroke-miterlimit="4"/></g></g></svg>